<svg xmlns="http://www.w3.org/2000/svg" viewBox="25 133 555 100" fill="#000">
  <g transform="translate(0,400) scale(0.1,-0.1)">
    <path d="M294 2616 c-8 -21 1 -33 33 -41 54 -13 53 -6 53 -320 0 -318 2 -308 -57 -324 -18 -5 -28 -14 -28 -27 0 -18 8 -19 145 -19 136 0 145 1 145 19 0 14 -11 22 -40 30 l-40 12 -3 300 c-3 325 -5 312 53 331 20 6 30 16 30 29 0 18 -10 19 -143 22 -118 2 -143 0 -148 -12z"/>
    <path d="M4477 2562 c-40 -44 -6 -106 54 -100 47 4 71 46 49 86 -20 35 -77 43 -103 14z"/>
    <path d="M1225 2434 c-11 -20 -35 -48 -55 -63 -19 -14 -38 -30 -42 -35 -12 -18 4 -36 33 -36 l29 0 0 -147 c1 -181 9 -230 45 -260 35 -30 114 -32 160 -3 62 38 54 86 -8 56 -45 -21 -60 -20 -80 2 -14 16 -17 44 -17 185 l0 167 59 0 c62 0 86 14 75 44 -5 12 -20 16 -70 16 l-63 0 -3 53 c-2 43 -6 52 -23 55 -14 2 -26 -8 -40 -34z"/>
    <path d="M4177 2425 c-16 -25 -42 -53 -58 -62 -50 -30 -49 -63 2 -63 l29 0 0 -169 c0 -181 7 -220 47 -246 60 -40 193 -1 193 57 0 22 -12 23 -52 2 -78 -41 -100 7 -96 213 l3 138 65 5 c61 5 65 6 65 30 0 24 -3 25 -62 28 l-62 3 -3 52 c-2 43 -6 52 -23 55 -14 2 -28 -10 -48 -43z"/>
    <path d="M663 2340 c-35 -16 -63 -34 -63 -39 0 -6 17 -19 38 -28 l37 -18 3 -135 c3 -163 0 -178 -38 -192 -19 -6 -30 -17 -30 -28 0 -17 11 -19 99 -22 54 -2 106 -2 115 0 28 6 19 39 -14 50 -38 14 -41 29 -38 191 l3 134 38 20 c21 11 58 22 82 25 37 4 47 1 69 -21 26 -26 26 -28 26 -174 0 -81 -4 -153 -8 -159 -4 -6 -17 -14 -29 -18 -14 -4 -23 -15 -23 -27 0 -19 6 -19 113 -17 92 2 112 6 112 18 0 8 -14 21 -31 29 -29 12 -32 19 -38 70 -3 31 -4 90 -1 131 10 160 -28 229 -129 238 -46 4 -65 -1 -120 -26 -35 -17 -67 -28 -70 -24 -3 3 -6 16 -6 29 0 30 -19 29 -97 -7z"/>
    <path d="M1522 2343 c-51 -22 -62 -31 -60 -47 2 -13 12 -22 25 -24 40 -6 44 -22 41 -178 l-3 -147 -30 -17 c-16 -9 -31 -24 -33 -33 -3 -15 10 -17 123 -17 106 0 127 3 132 16 7 18 -12 34 -42 34 -46 1 -50 12 -53 156 -3 131 -3 137 20 161 40 43 66 47 109 17 37 -25 40 -26 64 -10 34 23 34 68 -1 95 -40 32 -85 27 -138 -14 -26 -19 -48 -35 -50 -35 -3 0 -6 15 -8 32 -4 42 -18 44 -96 11z"/>
    <path d="M1966 2350 c-90 -45 -136 -123 -136 -233 0 -79 18 -128 63 -175 50 -53 103 -75 173 -75 146 1 246 103 246 253 1 107 -49 190 -137 231 -55 25 -157 25 -209 -1z m180 -71 c78 -71 94 -243 29 -313 -51 -55 -141 -52 -193 8 -40 46 -56 98 -56 176 0 73 19 116 63 144 38 25 123 17 157 -15z"/>
    <path d="M2427 2349 c-47 -25 -77 -72 -77 -121 0 -57 44 -101 137 -135 78 -29 123 -63 123 -93 0 -28 -37 -67 -69 -73 -48 -10 -98 10 -133 53 -40 51 -64 52 -72 4 -14 -71 49 -116 162 -116 46 0 74 6 109 23 90 47 118 156 56 221 -15 16 -66 43 -121 64 -97 38 -117 57 -102 99 4 11 20 26 35 34 38 19 97 0 125 -39 12 -17 30 -30 41 -30 16 0 19 7 19 55 0 54 0 54 -37 64 -62 18 -153 13 -196 -10z"/>
    <path d="M2762 2339 c-70 -33 -81 -60 -27 -69 20 -4 31 -13 36 -30 11 -39 10 -466 -1 -494 -6 -15 -17 -26 -29 -26 -28 0 -47 -26 -31 -45 10 -12 36 -15 115 -15 57 0 110 3 119 6 27 10 19 43 -11 49 -55 12 -58 17 -61 104 l-3 82 23 -12 c132 -71 282 39 304 223 12 104 -38 213 -113 244 -50 21 -96 17 -156 -15 l-56 -29 -3 26 c-4 37 -29 37 -106 1z m275 -65 c78 -49 82 -264 7 -323 -34 -27 -98 -27 -141 -1 l-33 20 0 138 c0 124 2 141 19 156 39 36 100 40 148 10z"/>
    <path d="M3370 2354 c-142 -62 -187 -276 -85 -410 58 -75 190 -100 288 -54 50 24 104 81 92 100 -10 15 -22 12 -67 -17 -54 -37 -135 -39 -190 -5 -36 22 -84 100 -70 113 4 4 72 32 152 63 79 31 150 62 158 70 12 11 11 19 -3 47 -24 47 -44 68 -87 90 -46 23 -138 25 -188 3z m152 -74 c16 -17 28 -36 26 -42 -3 -7 -46 -29 -97 -50 -139 -56 -131 -55 -131 -13 0 114 127 180 202 105z"/>
    <path d="M3811 2344 c-92 -46 -138 -138 -129 -257 3 -35 15 -81 27 -105 54 -105 197 -147 307 -89 32 16 84 71 84 87 0 22 -25 19 -62 -7 -33 -23 -52 -28 -97 -28 -102 0 -160 70 -161 193 0 112 44 172 127 172 37 0 50 -6 87 -40 67 -62 101 -48 77 30 -17 57 -42 70 -131 70 -62 0 -86 -5 -129 -26z"/>
    <path d="M4480 2345 c-66 -28 -75 -53 -28 -75 l33 -15 3 -135 c3 -163 0 -178 -38 -192 -36 -12 -41 -45 -7 -50 12 -2 63 -2 114 0 70 3 93 7 97 18 4 10 -5 20 -29 30 -19 8 -36 15 -37 17 -1 1 -4 97 -7 212 -7 241 -2 232 -101 190z"/>
    <path d="M4783 2345 c-91 -46 -140 -138 -131 -249 12 -140 103 -227 240 -229 160 -1 274 147 240 311 -33 158 -204 239 -349 167z m173 -55 c84 -53 113 -242 48 -320 -72 -85 -210 -38 -244 84 -18 64 -9 169 16 203 42 56 119 70 180 33z"/>
    <path d="M5215 2346 c-27 -11 -56 -25 -62 -29 -23 -15 -14 -36 20 -45 l32 -8 3 -161 2 -161 -30 -10 c-20 -8 -30 -18 -30 -31 0 -20 6 -21 115 -21 105 0 115 2 115 18 0 11 -13 24 -32 33 l-33 14 0 155 0 155 45 23 c60 30 114 29 145 -3 24 -23 25 -28 25 -172 0 -81 -4 -153 -8 -159 -4 -6 -17 -14 -29 -18 -14 -4 -23 -15 -23 -27 0 -18 8 -19 116 -19 104 0 115 2 112 17 -3 15 -29 34 -63 46 -6 2 -12 76 -15 180 l-5 177 -33 32 c-30 31 -37 33 -100 33 -54 0 -77 -5 -119 -27 -29 -16 -55 -28 -57 -28 -3 0 -6 12 -8 27 -4 35 -20 37 -83 9z"/>
  </g>
</svg>
